<?xml version="1.0" standalone="no"?>
<!DOCTYPE svg PUBLIC "-//W3C//DTD SVG 20010904//EN"
 "http://www.w3.org/TR/2001/REC-SVG-20010904/DTD/svg10.dtd">
<svg version="1.0" xmlns="http://www.w3.org/2000/svg"
 width="3651.000000pt" height="1168.000000pt" viewBox="0 0 3651.000000 1168.000000"
 preserveAspectRatio="xMidYMid meet">

<g transform="translate(0.000000,1168.000000) scale(0.100000,-0.100000)"
fill="#000000" stroke="none">
<path d="M3941 11529 c-198 -21 -443 -89 -598 -167 -119 -60 -253 -154 -350
-245 -48 -45 -450 -435 -893 -867 -1395 -1359 -1347 -1311 -1437 -1437 -297
-414 -482 -1125 -524 -2008 -20 -442 23 -955 117 -1373 220 -982 721 -1930
1480 -2804 144 -165 636 -655 809 -805 405 -351 847 -683 1295 -971 209 -135
672 -415 685 -415 20 0 558 330 810 498 1382 917 2370 1962 2964 3135 350 691
531 1313 603 2065 18 194 15 730 -6 950 -96 1022 -356 1688 -790 2026 -227
178 -481 258 -771 245 -309 -14 -598 -129 -801 -318 l-62 -59 -200 216 -200
216 31 69 31 70 273 0 273 0 -30 -60 c-16 -33 -30 -64 -30 -70 0 -7 36 -10
105 -8 l106 3 216 463 c119 254 214 464 212 466 -2 2 -179 128 -393 280 l-389
276 -331 0 c-245 0 -344 4 -381 14 -82 22 -178 76 -409 231 -373 250 -615 348
-948 384 -112 13 -345 12 -467 0z m558 -210 c251 -42 433 -124 766 -348 127
-85 266 -171 311 -192 145 -69 163 -71 524 -76 l326 -5 294 -210 c162 -115
294 -214 292 -220 -1 -6 -57 -127 -124 -269 l-121 -259 -261 0 c-147 0 -288 5
-321 11 -155 28 -262 135 -299 297 l-12 57 -47 3 -47 3 0 -58 c0 -123 46 -235
136 -332 l57 -62 -67 -141 -67 -141 29 -31 c16 -17 98 -105 182 -196 l152
-165 -136 -3 -136 -3 -245 211 -245 210 -55 0 c-30 0 -55 -2 -55 -4 0 -3 78
-96 174 -208 l175 -203 -357 -3 -357 -2 -205 205 -205 205 -123 0 c-67 0 -122
2 -122 5 0 3 7 22 15 42 53 127 78 346 56 490 -33 212 -129 403 -275 548 -168
166 -391 266 -621 277 l-70 3 -3 -47 -3 -46 58 -7 c325 -38 570 -219 700 -520
52 -121 69 -336 37 -478 -23 -104 -90 -237 -177 -354 l-77 -103 263 0 262 0
110 -110 110 -110 -1068 0 -1067 0 0 395 0 395 -335 2 -335 3 631 615 c347
338 660 638 696 666 297 237 808 342 1282 263z m-2129 -2081 l0 -332 -116
-385 c-139 -463 -159 -507 -283 -632 -72 -72 -102 -94 -181 -133 -209 -103
-421 -103 -630 0 -79 39 -110 62 -181 134 -73 72 -94 101 -132 180 -117 243
-99 497 51 716 22 34 200 215 410 422 l371 362 346 0 345 0 0 -332z m5217 -93
c383 -81 675 -377 868 -880 102 -265 185 -640 230 -1030 58 -514 44 -1084 -40
-1563 -145 -831 -540 -1703 -1121 -2477 -367 -490 -866 -1003 -1399 -1440
-393 -323 -857 -647 -1389 -970 l-208 -126 -147 87 c-1160 692 -2044 1431
-2716 2272 -572 715 -982 1515 -1183 2307 -189 740 -202 1586 -37 2401 47 229
141 552 144 490 2 -42 65 -207 107 -280 l46 -79 -26 -116 c-45 -203 -99 -571
-108 -734 l-2 -48 627 -294 626 -293 27 37 c15 20 45 55 67 78 26 28 37 46 31
55 -4 7 -172 226 -371 487 -200 260 -362 475 -360 478 3 2 26 -2 53 -8 43 -10
230 -14 318 -6 29 2 36 -8 279 -413 137 -228 252 -421 256 -429 7 -11 13 -10
39 3 17 9 59 22 93 30 33 8 63 17 65 19 3 2 -12 292 -34 643 l-38 639 27 70
c14 39 71 217 125 398 l98 327 2006 0 2006 0 54 56 c156 158 365 271 568 308
105 19 333 20 419 1z"/>
<path d="M4033 11144 c-8 -3 -13 -24 -13 -50 l0 -44 78 0 c101 0 256 -24 359
-55 167 -51 281 -115 518 -289 83 -60 191 -136 240 -169 l90 -59 3 114 c2 84
0 115 -10 121 -7 4 -96 60 -198 123 -383 238 -564 301 -885 310 -93 2 -176 1
-182 -2z"/>
<path d="M5780 10400 l0 -130 49 0 c44 0 49 3 55 25 10 38 66 96 114 117 43
19 43 20 40 66 l-3 47 -127 3 -128 3 0 -131z"/>
<path d="M6424 10420 c-66 -27 -85 -120 -35 -171 56 -55 159 -26 176 50 10 45
-18 99 -59 116 -40 17 -52 17 -82 5z"/>
<path d="M1655 8789 c-198 -313 -361 -573 -362 -577 -2 -4 14 -18 33 -30 36
-23 37 -23 54 -5 10 10 187 250 394 533 l376 514 0 68 0 68 -67 0 -68 0 -360
-571z"/>
<path d="M7205 8884 c-195 -43 -355 -144 -467 -296 l-51 -68 -1116 -1 -1116 0
-750 -980 c-412 -538 -754 -985 -759 -993 -7 -10 3 -28 37 -66 26 -29 55 -66
64 -81 10 -16 21 -29 27 -29 5 0 249 109 543 241 293 133 536 240 538 237 3
-2 -15 -89 -38 -193 l-43 -189 -445 -141 c-244 -77 -452 -144 -461 -147 -13
-6 -15 -13 -9 -36 5 -16 12 -61 16 -100 6 -62 5 -72 -9 -72 -26 0 -103 29
-229 87 -66 30 -154 63 -196 74 -166 43 -400 42 -557 -1 -41 -11 -134 -46
-207 -79 -137 -61 -191 -81 -213 -81 -18 0 -18 52 0 143 10 50 10 70 2 73 -72
27 -1155 384 -1165 384 -12 0 -13 -26 -7 -162 7 -166 23 -376 31 -414 4 -19
14 -22 93 -27 119 -7 195 -29 332 -92 212 -98 300 -119 505 -119 205 0 293 21
505 119 63 29 142 60 175 69 81 22 262 31 361 18 100 -14 147 -29 298 -99 322
-149 636 -149 955 -2 46 22 87 37 89 34 3 -3 -2 -39 -12 -81 -10 -41 -15 -78
-12 -81 3 -4 41 1 83 10 42 9 78 15 80 14 3 -4 -33 -177 -39 -182 -2 -1 -41
-16 -88 -33 -47 -16 -135 -53 -195 -80 -152 -69 -239 -86 -419 -79 -166 6
-214 17 -375 91 -65 30 -155 66 -200 80 -108 34 -267 49 -399 36 -129 -12
-201 -31 -316 -82 -197 -87 -224 -97 -298 -112 -100 -21 -286 -21 -386 0 -42
8 -117 34 -167 56 -236 105 -344 138 -456 138 -50 0 -51 0 -45 -26 4 -15 10
-40 13 -58 9 -47 17 -53 88 -60 73 -7 171 -41 320 -110 136 -62 234 -86 386
-93 207 -10 331 16 540 113 175 81 244 97 424 97 181 0 246 -15 422 -96 211
-98 335 -124 542 -114 159 8 242 29 428 113 80 36 146 64 148 62 3 -4 -81
-387 -86 -392 -2 -2 -65 -31 -140 -65 -168 -76 -243 -93 -414 -92 -159 0 -242
19 -398 92 -202 94 -308 119 -502 119 -193 0 -297 -25 -498 -117 -169 -77
-241 -94 -412 -94 -171 0 -243 17 -412 94 -105 49 -202 83 -286 102 -34 7 -38
24 49 -213 452 -1217 1387 -2351 2729 -3308 283 -202 861 -574 892 -574 11 0
252 147 453 277 1462 945 2497 2070 3045 3308 73 166 195 485 195 512 0 16
-189 -47 -312 -103 -171 -79 -242 -95 -413 -95 -171 0 -239 16 -412 95 -186
85 -271 107 -439 113 -231 9 -336 -13 -573 -122 -152 -70 -228 -87 -391 -87
-164 0 -235 17 -405 92 -77 35 -141 64 -143 65 -4 3 -161 730 -158 733 2 1 38
-5 80 -14 43 -9 80 -13 83 -10 3 3 -17 108 -46 233 l-51 228 285 285 c226 226
288 283 300 275 8 -6 94 -68 191 -139 l176 -129 300 299 300 299 291 -298
c161 -163 295 -297 299 -297 4 0 92 62 194 137 l187 137 422 -430 c233 -236
425 -427 428 -424 4 3 14 78 24 165 24 224 24 793 0 1020 -110 1024 -377 1606
-809 1767 -75 28 -97 31 -218 34 -96 3 -155 -1 -205 -12z m-567 -951 l33 -103
109 0 c144 0 148 -10 35 -92 -47 -34 -85 -67 -85 -73 0 -5 14 -52 30 -104 42
-134 35 -139 -87 -50 -51 37 -88 57 -95 53 -7 -5 -46 -32 -86 -62 -69 -51
-102 -60 -102 -29 0 7 14 53 30 102 17 49 30 91 30 94 0 3 -39 33 -85 66 -119
84 -116 95 28 95 l112 0 33 106 c43 137 55 137 100 -3z m-2093 -115 c17 -69
343 -1834 339 -1837 -2 -2 -37 3 -79 11 -41 8 -75 12 -75 9 0 -3 62 -303 139
-666 89 -424 134 -661 127 -663 -6 -1 -53 6 -104 16 -84 18 -92 18 -92 3 0 -9
65 -324 144 -701 79 -377 143 -686 142 -687 -1 -2 -126 47 -276 107 -151 61
-279 110 -286 110 -6 0 -134 -50 -284 -111 -150 -60 -273 -109 -274 -107 -2 2
64 318 144 703 81 385 147 701 146 702 0 1 -45 -8 -99 -19 -54 -11 -101 -17
-105 -14 -3 4 56 302 131 664 76 361 138 660 137 663 0 4 -30 0 -67 -8 -37 -7
-72 -12 -79 -11 -7 2 47 313 162 928 96 509 174 926 174 928 0 1 7 2 15 2 8 0
17 -10 20 -22z m1110 -243 l31 -100 112 -3 c143 -3 146 -14 30 -97 -46 -32
-84 -59 -85 -60 -1 0 13 -49 31 -107 28 -90 31 -108 19 -112 -18 -7 -18 -7
-110 61 -40 29 -75 53 -78 53 -3 0 -42 -27 -87 -60 -123 -90 -132 -84 -83 59
l34 102 -89 65 c-116 85 -113 94 30 94 l108 0 33 98 c38 116 37 114 57 110 11
-2 26 -36 47 -103z m1967 3 l35 -103 111 -3 c142 -3 145 -13 27 -97 -47 -33
-85 -63 -85 -66 0 -3 14 -45 30 -94 17 -49 30 -95 30 -102 0 -31 -32 -21 -102
29 -40 30 -79 58 -86 62 -7 4 -45 -16 -96 -53 -122 -88 -130 -84 -86 52 16 52
30 98 30 103 0 6 -39 38 -86 72 -47 35 -84 68 -81 75 2 8 38 13 115 15 l111 3
27 87 c48 158 59 161 106 20z m-4705 -2808 c178 -79 254 -95 463 -94 195 1
264 14 412 78 43 19 78 33 78 32 0 -1 -18 -82 -39 -181 -21 -99 -37 -182 -35
-184 2 -3 50 5 106 17 56 12 104 20 106 18 2 -2 -68 -337 -156 -745 -87 -408
-155 -741 -150 -741 4 0 139 66 299 146 l291 145 -6 -58 c-3 -32 -8 -98 -11
-148 -3 -49 -8 -106 -11 -126 l-5 -36 -105 -12 c-123 -14 -206 -38 -324 -93
-207 -97 -334 -126 -515 -115 -138 9 -208 28 -367 100 l-138 62 -2 923 -3 923
-62 -47 -63 -46 0 -893 0 -893 -54 -46 c-30 -25 -57 -46 -60 -46 -3 0 -6 436
-6 969 l0 969 113 85 c61 47 117 86 122 86 6 1 61 -22 122 -49z m3460 -35
l113 -85 0 -971 c0 -773 -3 -969 -12 -963 -7 4 -32 24 -55 43 l-43 35 0 893 0
892 -67 51 -68 52 -3 -924 -2 -924 -127 -57 c-195 -89 -248 -101 -433 -101
-184 0 -246 14 -429 98 -149 69 -231 94 -355 108 -56 6 -103 12 -105 14 -3 2
-30 313 -31 352 0 6 130 -53 291 -133 160 -81 294 -145 298 -143 5 2 -63 336
-150 743 -87 406 -157 740 -155 742 1 2 49 -6 105 -18 57 -11 104 -19 107 -17
3 4 -41 215 -71 345 -5 21 -2 20 75 -13 150 -65 214 -77 415 -77 162 -1 189 2
275 25 52 14 138 46 190 71 52 25 101 46 109 46 8 1 65 -37 128 -84z m-1794
-1386 c23 -12 43 -23 45 -24 3 -3 51 -1401 52 -1497 l0 -48 -156 0 -156 0 6
133 c3 72 15 404 26 737 11 333 21 621 23 640 2 29 9 38 42 57 50 28 65 28
118 2z m-333 -641 c0 -24 -4 -48 -8 -54 -4 -5 -39 -15 -78 -21 -68 -10 -143
-38 -320 -117 -168 -75 -376 -106 -587 -86 -163 14 -256 40 -423 116 -78 35
-148 64 -156 64 -7 0 3 14 22 31 76 65 64 65 196 5 156 -71 230 -93 361 -107
224 -24 387 9 643 129 110 52 205 77 308 81 l42 1 0 -42z m754 16 c33 -9 114
-40 180 -70 162 -74 254 -101 385 -115 84 -9 138 -9 221 0 134 14 209 36 367
108 l122 55 50 -42 51 -43 -78 -34 c-266 -119 -326 -138 -504 -154 -217 -20
-425 12 -602 92 -193 87 -228 100 -305 111 -87 13 -91 17 -91 87 l0 34 72 -7
c40 -4 99 -14 132 -22z"/>
<path d="M2930 4326 l0 -75 78 -29 c205 -80 499 -84 702 -10 l65 23 3 74 c3
67 1 73 -15 68 -10 -3 -58 -20 -108 -38 -84 -30 -101 -33 -247 -37 -180 -5
-259 8 -390 64 -44 19 -82 34 -84 34 -2 0 -4 -33 -4 -74z"/>
<path d="M2930 3787 c0 -71 1 -74 28 -87 59 -27 164 -59 235 -70 93 -15 361
-8 432 12 l50 14 3 72 3 73 -28 -7 c-15 -4 -38 -11 -50 -15 -12 -4 -68 -13
-125 -19 -174 -19 -364 12 -498 80 -22 11 -42 20 -45 20 -3 0 -5 -33 -5 -73z"/>
<path d="M2932 3244 l3 -76 50 -20 c128 -51 176 -60 347 -65 92 -3 179 -2 193
1 24 6 25 10 25 74 l0 68 -72 -8 c-153 -18 -346 11 -477 72 -35 17 -65 30 -68
30 -2 0 -3 -34 -1 -76z"/>
<path d="M6027 4363 c-122 -54 -196 -65 -382 -61 -161 4 -211 15 -347 73 -16
6 -18 0 -18 -68 l0 -76 80 -26 c123 -38 208 -48 370 -42 149 5 235 23 342 69
l48 20 0 74 c0 41 -3 74 -7 73 -5 0 -43 -16 -86 -36z"/>
<path d="M6045 3829 c-110 -53 -203 -71 -365 -71 -116 0 -161 4 -224 21 -44
11 -81 21 -83 21 -2 0 -3 -33 -1 -72 l3 -73 85 -18 c68 -14 118 -17 250 -13
172 4 235 15 349 61 l56 23 3 76 c2 42 -1 76 -5 75 -4 0 -35 -14 -68 -30z"/>
<path d="M6060 3296 c-73 -38 -162 -64 -267 -76 -88 -11 -229 -8 -275 6 -16 5
-18 -3 -18 -64 0 -55 3 -71 16 -76 9 -3 81 -6 160 -6 160 0 256 15 369 59 l70
26 3 78 c2 42 -1 77 -5 77 -4 -1 -28 -12 -53 -24z"/>
<path d="M2676 8508 c-2 -7 -28 -415 -56 -907 -56 -949 -56 -910 -8 -911 9 0
47 -11 83 -24 l66 -24 14 22 c7 11 261 434 564 939 l550 917 -605 0 c-475 0
-605 -3 -608 -12z"/>
<path d="M6175 5976 c-81 -36 -106 -146 -46 -200 18 -16 17 -18 -15 -50 -30
-30 -34 -41 -34 -84 0 -86 69 -142 175 -142 109 0 175 53 175 142 0 43 -4 54
-34 84 -32 32 -33 34 -15 50 11 10 24 34 30 55 10 31 9 43 -7 75 -28 57 -75
84 -143 84 -31 -1 -69 -7 -86 -14z m112 -102 c12 -19 11 -24 -6 -45 -16 -20
-23 -22 -38 -13 -22 14 -29 50 -12 70 16 19 38 14 56 -12z m1 -186 c7 -7 12
-21 12 -33 0 -47 -62 -63 -81 -21 -22 47 33 90 69 54z"/>
<path d="M7550 5983 c-85 -32 -116 -140 -59 -202 l21 -22 -26 -24 c-100 -93
-21 -235 131 -235 90 0 153 35 174 97 16 49 3 101 -34 136 -21 20 -28 32 -19
34 19 7 42 58 42 95 0 45 -30 91 -73 111 -34 16 -125 22 -157 10z m91 -93 c11
-6 19 -21 19 -35 0 -20 -24 -45 -44 -45 -10 0 -36 32 -36 45 0 13 26 45 36 45
3 0 14 -5 25 -10z m9 -204 c28 -35 -11 -93 -47 -70 -36 22 -23 84 17 84 10 0
23 -7 30 -14z"/>
<path d="M5520 5920 l0 -60 30 0 30 0 0 -175 0 -175 65 0 65 0 0 235 0 235
-95 0 -95 0 0 -60z"/>
<path d="M6911 5959 c-47 -51 -130 -179 -146 -224 -31 -93 8 -186 92 -221 72
-31 200 -8 245 42 51 58 58 145 18 211 -25 41 -57 62 -110 71 l-43 7 52 62
c28 33 51 64 51 67 0 3 -31 6 -70 6 -57 0 -73 -4 -89 -21z m83 -251 c33 -47 5
-100 -51 -100 -30 0 -63 33 -63 63 0 52 85 79 114 37z"/>
<path d="M11340 9019 c-662 -67 -1123 -460 -1284 -1095 -54 -211 -60 -278 -61
-589 0 -260 3 -303 24 -420 46 -257 134 -488 259 -674 31 -47 102 -131 157
-187 289 -291 689 -428 1194 -411 348 12 606 87 852 248 111 73 270 228 347
341 147 215 247 505 282 813 15 133 12 473 -4 605 -52 411 -192 726 -431 966
-233 233 -530 365 -914 404 -119 12 -298 11 -421 -1z m395 -275 c263 -63 427
-292 504 -704 37 -201 46 -332 46 -705 0 -373 -9 -504 -46 -705 -77 -408 -237
-635 -499 -706 -89 -24 -272 -24 -360 -1 -341 91 -502 404 -551 1072 -15 204
-6 684 15 859 53 432 161 680 353 809 143 97 345 127 538 81z"/>
<path d="M27012 9019 c-301 -41 -558 -179 -698 -375 -131 -183 -187 -418 -165
-682 32 -367 184 -605 492 -771 42 -23 222 -102 400 -176 363 -152 434 -190
532 -283 115 -111 152 -215 145 -401 -7 -163 -53 -260 -163 -343 -86 -65 -157
-83 -325 -82 -128 0 -154 3 -223 26 -203 68 -310 169 -557 528 -96 139 -177
257 -180 262 -3 4 -45 0 -92 -9 -84 -16 -87 -17 -82 -42 2 -14 22 -240 44
-501 23 -261 44 -487 48 -502 l7 -26 143 86 c131 78 146 85 170 75 15 -6 70
-29 122 -50 200 -83 340 -108 615 -108 228 0 313 12 462 62 265 88 449 243
558 467 72 148 90 237 90 456 0 259 -32 392 -137 567 -78 131 -250 278 -432
370 -39 20 -214 93 -388 164 -338 136 -425 180 -510 258 -110 101 -153 216
-146 388 4 93 8 109 41 177 39 77 84 126 159 169 154 91 446 70 618 -45 103
-69 158 -130 393 -439 l126 -166 76 15 75 16 -5 61 c-3 33 -14 236 -26 450
-11 215 -21 395 -22 401 -1 7 -57 -13 -136 -48 l-134 -59 -126 35 c-69 20
-180 45 -246 57 -139 23 -412 33 -523 18z"/>
<path d="M28853 8402 l-442 -377 0 -92 -1 -93 168 -2 167 -3 5 -815 c5 -794 6
-817 27 -890 91 -319 292 -470 648 -487 336 -16 618 101 804 332 l60 76 -20
52 c-12 28 -24 58 -26 65 -7 16 -10 15 -125 -33 -121 -50 -214 -68 -318 -62
-171 9 -255 77 -308 250 -14 45 -16 148 -19 785 l-4 732 349 0 348 0 17 128
c9 70 17 133 17 140 0 9 -88 12 -365 12 l-365 0 0 330 0 330 -87 0 -88 0 -442
-378z"/>
<path d="M32943 8400 l-443 -380 0 -90 0 -90 170 0 169 0 3 -812 c4 -804 4
-814 26 -893 88 -319 294 -476 647 -492 307 -14 552 73 746 266 36 36 78 84
92 106 l27 41 -26 66 -26 66 -82 -38 c-106 -50 -180 -69 -292 -77 -208 -13
-321 67 -371 264 -16 61 -18 139 -18 783 l0 715 348 3 c322 2 347 4 348 20 0
9 8 72 18 139 l17 123 -365 2 -366 3 -3 328 -2 327 -88 0 -87 -1 -442 -379z"/>
<path d="M19832 8402 c-72 -26 -121 -68 -155 -133 -27 -50 -28 -61 -25 -144 3
-49 8 -98 13 -109 7 -17 6 -17 -21 -3 -49 26 -224 83 -319 105 -227 53 -526
75 -728 53 -415 -45 -704 -235 -826 -543 -41 -101 -54 -183 -54 -323 0 -142
16 -215 73 -332 69 -140 200 -258 363 -327 37 -16 66 -31 64 -33 -2 -2 -37
-13 -78 -24 -217 -60 -378 -207 -418 -380 -14 -59 -14 -186 0 -251 39 -186
189 -322 400 -366 43 -9 78 -21 76 -26 -2 -5 -42 -17 -90 -27 -324 -65 -494
-202 -528 -426 -33 -219 71 -398 293 -507 211 -104 464 -146 872 -146 328 0
552 31 769 107 288 100 467 243 575 459 79 156 98 417 47 619 -48 188 -174
344 -345 429 -193 95 -295 106 -954 106 -461 0 -481 1 -520 20 -23 11 -49 32
-60 46 -22 31 -31 97 -22 149 10 49 75 118 142 150 l54 26 88 -18 c120 -23
393 -23 517 1 274 52 498 170 621 324 96 122 144 262 144 427 0 214 -84 377
-250 487 -61 40 -80 58 -80 75 0 13 3 23 6 23 4 0 54 -18 113 -39 156 -57 246
-75 356 -69 82 5 100 9 157 40 68 37 119 98 138 166 15 56 12 192 -6 244 -21
62 -75 123 -138 155 -69 36 -187 42 -264 15z m-917 -499 c97 -50 151 -146 176
-313 18 -119 6 -488 -18 -571 -51 -174 -138 -241 -313 -242 -187 -1 -282 91
-321 313 -20 113 -17 453 6 555 32 149 91 233 189 269 62 23 228 17 281 -11z
m399 -2407 c123 -35 199 -96 230 -184 54 -153 12 -328 -106 -437 -137 -127
-356 -182 -683 -172 -243 7 -357 43 -462 146 -142 140 -146 407 -7 561 21 23
61 58 89 77 l50 34 415 -4 c353 -3 424 -6 474 -21z"/>
<path d="M13675 8041 l-410 -138 -3 -29 c-2 -23 24 -71 118 -217 l120 -189 -2
-760 -3 -761 -110 -47 -110 -48 -3 -76 -3 -76 682 2 682 3 34 79 c18 43 32 80
31 81 -2 1 -100 23 -218 49 -118 26 -225 51 -237 56 l-23 10 0 688 0 689 63
74 c90 105 203 208 278 251 l64 38 11 -69 c24 -141 87 -229 204 -285 60 -28
73 -31 170 -31 93 0 111 3 162 27 164 77 248 248 220 448 -20 142 -90 249
-200 308 -164 88 -390 82 -575 -15 -135 -71 -286 -249 -363 -429 -42 -99 -56
-87 -50 44 3 59 8 187 11 285 l6 177 -68 -1 c-60 0 -118 -17 -478 -138z"/>
<path d="M16404 8170 c-494 -65 -860 -378 -999 -856 -46 -156 -57 -267 -52
-489 8 -324 62 -520 203 -732 166 -249 427 -402 761 -444 116 -14 364 -6 473
16 307 62 527 221 654 473 15 29 24 61 21 70 -3 9 -26 39 -50 65 l-44 48 -83
-56 c-173 -117 -304 -158 -508 -158 -85 0 -147 5 -195 17 -225 55 -385 210
-466 450 -32 96 -59 246 -59 328 l0 58 714 0 714 0 6 33 c4 17 9 118 12 222 5
170 4 201 -16 295 -38 184 -113 324 -235 438 -123 116 -281 188 -471 217 -105
16 -278 18 -380 5z m228 -256 c158 -45 238 -200 241 -469 1 -71 -2 -151 -6
-177 l-8 -48 -395 0 -394 0 0 24 c0 40 30 197 51 271 90 309 286 462 511 399z"/>
<path d="M21046 8164 c-401 -54 -702 -257 -866 -583 -47 -94 -95 -251 -116
-376 -25 -149 -25 -458 0 -600 59 -337 217 -598 461 -760 223 -149 494 -214
835 -202 579 20 972 299 1115 792 46 158 59 263 59 475 0 212 -13 317 -59 475
-128 440 -465 716 -952 780 -138 18 -342 18 -477 -1z m397 -264 c153 -57 247
-218 293 -500 52 -312 36 -869 -31 -1130 -28 -112 -87 -221 -150 -278 -78 -72
-145 -96 -265 -96 -119 0 -187 24 -264 94 -133 122 -196 356 -211 790 -7 185
5 465 26 604 57 379 211 557 470 541 42 -2 101 -14 132 -25z"/>
<path d="M23265 8125 c-88 -30 -274 -91 -412 -136 -251 -81 -253 -81 -253
-109 0 -19 40 -91 120 -217 l120 -188 -2 -764 -3 -764 -110 -47 -110 -48 -3
-76 -3 -76 609 0 609 0 33 75 c18 42 31 77 29 79 -2 2 -74 26 -159 54 l-155
49 -3 756 -2 755 44 39 c129 114 344 177 487 143 147 -35 236 -125 286 -291
15 -47 17 -140 20 -729 l4 -675 -113 -52 -113 -51 -3 -76 -3 -76 611 0 611 0
35 76 c19 42 33 78 32 79 -2 1 -76 25 -165 54 l-163 52 0 732 c0 408 -5 765
-10 806 -16 122 -39 201 -90 306 -127 264 -358 389 -683 372 -312 -17 -547
-147 -741 -410 -31 -42 -61 -75 -67 -72 -5 4 -7 34 -4 68 2 34 7 142 10 240
l6 177 -68 -1 c-54 0 -100 -11 -228 -54z"/>
<path d="M31310 8174 c-363 -45 -660 -191 -851 -417 l-57 -68 31 -77 c17 -42
32 -79 34 -81 1 -2 42 14 90 36 184 85 356 123 558 123 237 0 382 -60 476
-196 58 -85 71 -141 77 -331 l4 -171 -65 14 c-255 53 -623 27 -836 -60 -232
-94 -377 -249 -425 -456 -20 -84 -20 -282 -1 -375 46 -220 213 -390 445 -452
93 -26 357 -25 455 1 189 50 326 147 412 294 14 24 29 40 33 35 4 -4 15 -33
24 -63 48 -153 167 -250 343 -281 93 -16 296 -6 398 20 146 38 318 141 310
186 -2 11 -6 36 -9 55 l-6 36 -67 -4 c-91 -6 -166 12 -210 51 -71 62 -67 27
-74 792 -6 747 -6 748 -65 903 -90 238 -285 399 -562 463 -85 20 -373 34 -462
23z m360 -1698 l0 -305 -33 -25 c-53 -41 -137 -74 -216 -86 -233 -37 -395 107
-394 350 0 103 27 181 81 241 82 92 197 127 425 128 l137 1 0 -304z"/>
<path d="M35385 8169 c-455 -62 -816 -351 -968 -774 -89 -249 -107 -612 -43
-895 100 -445 380 -733 810 -833 76 -17 125 -21 291 -21 215 -1 293 8 430 51
240 75 430 237 536 456 l22 45 -20 26 c-11 14 -35 42 -52 62 l-32 36 -74 -51
c-171 -118 -311 -163 -515 -163 -226 -1 -356 47 -491 182 -139 139 -204 310
-233 618 l-5 52 718 0 719 0 6 38 c14 97 18 355 6 444 -51 375 -287 633 -650
713 -90 19 -356 28 -455 14z m273 -269 c95 -42 157 -133 187 -277 15 -69 20
-296 9 -365 l-7 -38 -395 0 -395 0 7 72 c19 187 102 408 191 506 110 122 267
162 403 102z"/>
<path d="M16203 4779 c-109 -21 -203 -92 -250 -188 -25 -50 -28 -67 -28 -156
0 -84 4 -107 23 -146 37 -75 87 -125 160 -161 60 -30 75 -33 157 -33 82 0 97
3 157 33 73 36 123 86 160 161 19 39 23 62 23 146 0 89 -3 106 -28 157 -66
134 -230 216 -374 187z"/>
<path d="M25340 4779 c-115 -23 -220 -110 -260 -217 -18 -47 -21 -72 -18 -142
7 -140 67 -234 186 -292 60 -30 75 -33 157 -33 76 0 99 4 145 26 80 37 125 81
162 157 30 61 33 75 33 162 0 84 -3 102 -28 152 -66 134 -230 216 -377 187z"/>
<path d="M9927 4493 c-12 -22 -38 -166 -30 -173 4 -4 24 -12 43 -18 19 -6 108
-34 197 -62 l162 -51 4 -1047 c3 -1025 4 -1049 24 -1140 110 -479 377 -726
883 -817 125 -22 445 -31 565 -16 522 68 869 351 1000 815 49 171 48 152 54
1209 l6 999 75 23 c41 13 134 42 206 64 l132 41 -22 88 -22 87 -542 3 -541 2
-10 -37 c-27 -103 -33 -134 -27 -141 4 -4 96 -34 204 -68 l197 -61 3 -934 c2
-660 0 -962 -9 -1029 -62 -516 -418 -793 -962 -750 -376 30 -585 217 -671 600
-21 93 -21 111 -21 1103 l0 1009 75 23 c41 13 134 42 206 64 l132 41 -22 88
-22 87 -631 3 c-348 1 -634 -1 -636 -5z"/>
<path d="M26275 3934 l-350 -386 0 -82 0 -81 157 -3 157 -3 3 -857 c3 -853 4
-857 26 -937 66 -236 196 -365 412 -411 105 -22 351 -14 470 15 151 38 338
146 439 254 l23 26 -28 71 c-30 77 -30 77 -104 40 -19 -10 -73 -30 -120 -46
-77 -25 -98 -28 -235 -28 l-150 -1 -63 34 c-70 38 -110 85 -145 171 l-22 55
-3 808 -3 807 388 0 c353 0 390 -2 409 -18 21 -17 894 -2202 894 -2236 0 -28
-89 -245 -147 -358 -151 -297 -332 -494 -480 -524 l-32 -6 22 43 c32 63 32
225 0 284 -60 112 -180 165 -318 143 -171 -27 -263 -152 -253 -342 9 -174 112
-294 295 -341 119 -31 332 -12 458 41 202 84 398 311 569 657 111 225 140 301
588 1522 226 616 414 1125 419 1130 4 6 62 33 128 59 135 55 129 47 108 151
l-13 60 -450 3 -450 2 -15 -80 c-9 -45 -13 -82 -10 -84 3 -2 85 -29 181 -61
96 -32 176 -58 177 -59 3 -2 -15 -58 -222 -696 -148 -459 -222 -699 -299 -972
-9 -32 -20 -58 -25 -58 -5 0 -16 42 -25 93 -48 265 -101 428 -359 1112 -108
286 -197 526 -199 534 -2 10 41 25 162 56 91 23 170 43 176 46 7 3 4 32 -9 87
l-19 82 -824 0 -824 0 -2 333 -3 332 -55 3 -55 3 -350 -387z"/>
<path d="M13500 3614 c-135 -52 -287 -111 -337 -131 -130 -49 -130 -49 42
-242 l135 -152 0 -813 0 -813 -127 -45 -128 -45 -3 -82 -3 -81 535 0 c417 0
537 3 543 13 4 6 22 44 39 82 22 47 28 72 20 76 -6 3 -93 27 -193 54 l-183 48
0 787 0 787 60 42 c79 56 198 114 290 143 64 19 96 23 215 23 133 0 143 -2
201 -28 117 -54 185 -155 204 -303 7 -50 10 -335 8 -773 l-3 -694 -130 -47
-130 -47 0 -79 0 -79 538 0 538 0 35 79 c19 43 33 81 30 83 -2 3 -87 27 -188
54 -101 28 -186 53 -190 57 -4 4 -9 376 -10 827 -3 815 -4 820 -26 900 -62
221 -193 379 -371 446 -240 91 -548 44 -792 -122 -80 -54 -195 -170 -245 -249
-22 -33 -43 -60 -48 -60 -5 0 -5 103 -1 240 l7 240 -43 -1 c-30 0 -121 -30
-289 -95z"/>
<path d="M16180 3614 c-135 -52 -287 -111 -337 -131 -130 -49 -130 -49 42
-242 l135 -152 0 -813 0 -813 -127 -45 -128 -45 -3 -82 -3 -81 535 0 c417 0
537 3 543 13 4 6 22 44 39 82 22 47 28 72 20 76 -6 3 -93 27 -193 54 l-183 48
0 1114 0 1113 -47 -1 c-35 0 -113 -25 -293 -95z"/>
<path d="M20080 3704 c-14 -2 -59 -9 -100 -15 -222 -33 -437 -146 -598 -313
-174 -181 -276 -393 -328 -681 -26 -147 -24 -449 4 -605 87 -478 351 -790 761
-897 133 -35 364 -43 511 -18 180 30 326 88 446 179 69 51 174 160 218 225
l30 43 -34 61 c-18 34 -34 64 -36 66 -2 2 -32 -15 -66 -37 -210 -132 -379
-183 -612 -183 -204 0 -349 48 -474 157 -173 152 -292 463 -292 767 l0 87 759
0 758 0 12 88 c75 586 -190 991 -697 1067 -90 14 -202 17 -262 9z m181 -260
c62 -18 145 -71 176 -112 76 -102 103 -210 103 -409 l0 -143 -510 0 -510 0 6
28 c57 251 125 393 243 509 55 54 163 117 227 132 64 15 205 12 265 -5z"/>
<path d="M21470 3580 c-334 -128 -335 -129 -338 -159 -3 -27 13 -49 132 -184
l136 -152 0 -812 0 -812 -130 -43 -130 -42 0 -83 0 -83 590 0 591 0 34 76 c19
42 35 82 35 88 0 7 -95 30 -245 60 l-245 49 0 714 0 715 69 91 c114 152 287
304 377 331 19 6 22 2 29 -41 17 -116 71 -201 157 -249 49 -27 60 -29 158 -29
116 0 161 15 228 79 127 119 131 373 8 500 -128 131 -371 155 -581 57 -153
-71 -318 -249 -419 -448 -20 -40 -41 -73 -47 -73 -7 0 -8 31 -5 93 3 50 8 181
11 290 l6 197 -43 0 c-30 -1 -141 -38 -378 -130z"/>
<path d="M23715 3699 c-106 -14 -211 -46 -304 -90 -108 -53 -220 -160 -274
-265 -59 -115 -80 -223 -74 -384 3 -77 12 -161 21 -195 54 -200 206 -370 416
-463 30 -13 152 -58 270 -99 362 -126 467 -189 527 -318 25 -54 28 -71 28
-165 0 -121 -20 -178 -82 -242 -94 -97 -315 -131 -518 -81 -197 48 -369 219
-511 506 -31 61 -54 97 -64 96 -8 0 -40 -8 -70 -18 -54 -16 -55 -18 -53 -51 1
-19 12 -199 24 -400 12 -201 23 -366 24 -368 2 -2 58 25 126 59 114 57 126 61
154 50 203 -79 361 -111 539 -111 392 1 667 132 787 375 57 115 72 200 66 370
-6 176 -32 268 -110 383 -110 161 -263 252 -636 377 -267 89 -356 131 -426
199 -62 62 -93 124 -106 211 -18 131 14 230 102 309 76 68 155 90 302 84 133
-6 192 -25 294 -97 90 -63 164 -147 265 -296 44 -66 86 -121 93 -123 6 -2 34
5 61 15 l49 19 -3 64 c-10 197 -41 642 -44 646 -3 2 -62 -17 -133 -42 l-128
-45 -71 26 c-164 59 -387 85 -541 64z"/>
<path d="M25320 3614 c-135 -52 -287 -111 -337 -130 -130 -51 -130 -51 42
-245 l135 -151 0 -813 0 -812 -127 -45 -128 -44 -3 -82 -3 -82 535 0 c417 0
537 3 543 13 4 6 22 44 39 82 29 64 30 71 14 77 -10 3 -97 28 -194 54 l-176
47 0 1114 0 1113 -47 -1 c-35 0 -113 -26 -293 -95z"/>
<path d="M16726 3642 c-4 -7 -36 -125 -36 -135 0 -3 52 -38 116 -78 85 -53
120 -81 131 -104 9 -18 209 -500 447 -1071 l431 -1039 136 -3 c101 -2 139 1
146 10 5 7 198 496 429 1085 l419 1073 125 51 c69 28 127 53 129 55 4 3 -15
111 -25 147 -5 16 -36 17 -459 17 l-453 0 -10 -47 c-6 -27 -13 -64 -17 -83
l-6 -35 180 -60 c100 -33 181 -64 181 -70 0 -6 -94 -273 -210 -594 -178 -495
-265 -761 -320 -978 -12 -49 -27 -55 -36 -15 -64 287 -118 448 -359 1057 -118
297 -215 546 -217 554 -2 10 43 26 174 59 98 24 176 47 174 51 -2 3 -11 41
-21 84 l-17 77 -513 0 c-283 0 -516 -3 -519 -8z"/>
</g>
</svg>
